<?xml version="1.0" encoding="UTF-8"?>
<!DOCTYPE svg PUBLIC "-//W3C//DTD SVG 1.1//EN" "http://www.w3.org/Graphics/SVG/1.1/DTD/svg11.dtd">
<!-- Creator: CorelDRAW 2018 (64 Bit Versão de avaliação) -->
<svg xmlns="http://www.w3.org/2000/svg" xml:space="preserve" width="33.8666mm" height="33.8666mm" version="1.1" style="shape-rendering:geometricPrecision; text-rendering:geometricPrecision; image-rendering:optimizeQuality; fill-rule:evenodd; clip-rule:evenodd"
viewBox="0 0 3386.66 3386.66"
 xmlns:xlink="http://www.w3.org/1999/xlink">
 <defs>
  <style type="text/css">
   <![CDATA[
    .fil3 {fill:none}
    .fil0 {fill:#0D1C94;fill-rule:nonzero}
    .fil4 {fill:white;fill-rule:nonzero}
    .fil2 {fill:url(#id1)}
    .fil1 {fill:url(#id2)}
   ]]>
  </style>
    <clipPath id="id0">
     <path d="M1681.34 1122.8l0 218.69c-27.05,0 -54.1,-0.03 -81.15,0.01 -34.85,0.04 -50.62,2.73 -53.14,-29.9 -3.71,-48.24 4.59,-77.73 -29.14,-131.9 -39.69,-63.72 -70.63,-55.44 -122.97,-160.33 -5.58,-11.2 -6.85,-21.75 -13,-27.47l-8.19 -38.85c-7.06,-34.46 -6.97,-53.13 -5.9,-89.48 0.46,-15.48 5.37,-29.12 5.69,-43.58 9.46,-18.19 11.43,-53.86 48.07,-107.82 19.69,-29.02 72.73,-83.6 103.02,-95.56 3.84,-7.03 34.91,-20.34 44.7,-24.52 16.62,-7.1 33.79,-13.41 54.39,-17.81 41.82,-8.92 83.22,-5 92.12,-16.65 6.25,-8.17 5.54,-17.84 -1.43,-24.61 -21.99,-21.32 -136,11.19 -174.85,30.19 -8.96,4.38 -15.5,7.14 -24.23,11.78 -10.05,5.33 -15.7,8.25 -21.47,17.17 -2.09,-0.13 -1.38,-3.05 -12.05,4.41 -15.24,10.66 -70.61,57.85 -75.95,74.33l-20.64 24.91c-3.66,5.42 -4.62,8.01 -8.02,13.94 -11.21,19.53 -33.12,58.17 -34.2,80.62l-14.29 73.24c-0.77,15.41 -4.61,20.42 -1.57,39.63 1.84,11.63 3.64,32.39 4.43,42.5 3.68,38.75 26.7,90.25 41.93,118.87 17.48,32.86 45.12,64.07 72.09,90.23 117.34,113.8 13.54,175.38 104.23,221.94 -6.43,13.02 -2.28,21.94 2.21,33.47 5.9,15.2 -3.66,13.14 -5.12,31.87 -1.93,24.69 17.42,46.93 39.29,48.69 0,23.55 -3.96,50.72 25.63,67.44 22.01,12.44 55.47,8.58 89.1,8.58 44.73,0 89.39,8.25 109.25,-32.46 7.04,-14.45 5.47,-22.95 5.47,-43.56 13.35,-3.01 17.93,-5.83 26.39,-15.11 24.01,-26.35 4.02,-50.28 5.13,-60.24 0.07,-0.64 28.98,-63.75 -40.54,-73.36 -21.33,-2.94 -62.64,-0.61 -86.12,-0.61l0 -183.39 0.12 -134.36c0.11,-19.34 -2.2,-24.16 -11.98,-34.54l-83.89 -97.78c-19.03,-20.86 -26.73,-11.17 -64.94,3.66 -14.45,5.61 -55.99,19.86 -64.08,27.51 -11.99,11.33 -10.59,43.72 34.9,25.64l66.75 -24.84c12.81,8.32 52.3,58.64 66.44,74.01 23.61,25.65 17.56,22.29 17.51,53.59 -0.04,23.94 0,47.87 0,71.81zm-970.95 1275.09l982.4 0.89 0 0 4.75 0 4.75 0 0 0 969.73 -0.85 4.25 -96.17 -195.02 -235.01 -778.96 -1.68 0 -0.02 -4.75 0.01 -4.75 -0.01 0 0.02 -778.96 1.68 -195.02 235.01 -8.42 96.13zm1004.39 -505.94l711.27 -0.1 0.42 -800.03 -253.52 -7.37 -0.86 -67.64 283.71 0.05 46.23 29.3 1.78 877.44c-1.81,9.29 -38.57,49.63 -55.08,52.24l-729.54 0.71 0 0 -4.41 0 -4.42 0 0 0 -729.54 -0.71c-16.5,-2.61 -53.27,-42.95 -55.07,-52.24l1.78 -877.44 46.22 -29.3 310.08 -0.05 5.55 67.64 -286.3 7.37 0.42 800.03 711.28 0.1zm-195.74 -1223.76c0,9.2 10.11,19.01 19.59,19.01 13.05,0 30.62,-15.16 43.14,-20.59 29.6,-12.86 38.01,-9.91 38.01,-33.71 0,-35.37 -75.06,9.2 -86.72,16.32 -5.74,3.5 -14.02,10.14 -14.02,18.97zm-103.53 124.89c0,13.02 24.59,39.33 43.98,-6.2 21.17,-49.72 62.75,-65.76 40.87,-86.98 -31.46,-30.52 -84.85,83.61 -84.85,93.18zm380.56 149.81l0 -338.57 0 -12.15c12.35,-6.34 19.46,-11.52 36.78,-13.38 51.18,-5.47 67.73,46.39 52.46,64.67 -9.5,11.37 -42.4,34.82 -32.26,88.9 2.71,14.47 8.15,23.95 15.11,34.2 9.38,13.77 11.34,18.37 34.24,18.37 5.83,-8.45 15.4,-13.92 8.58,-27.02 -0.05,-0.1 -46.26,-50.92 0.84,-86.01 38.79,-28.89 96.32,1.06 97.05,50.63 0.57,38.06 -17.14,38.96 29.02,47.68 42.96,8.12 77.12,45.53 77.33,93.42 0.15,32.97 -9.17,43.87 -19.75,65.78 -6.53,3.72 -8.19,9.75 -16.3,16.17 -6.84,5.41 -12.45,9.19 -20.07,13.11 -12.68,-6.51 -20.33,-12.01 -36.25,-16.42 -11.5,-3.19 -34.56,-4.05 -48.97,-1.1 -16.92,3.46 -42.41,14.89 -52.85,27.45 -7.1,8.54 -4.64,8.88 -4.64,22.65 15.99,10.39 16.59,18.12 35.74,2.12 9.86,-8.25 24.81,-15.96 42.59,-15.93 16.75,0.03 34.72,6.8 43.7,14.86 10.34,9.27 11.01,28.66 9.45,47.78 -3.29,40.41 -44.05,49.42 -44.28,67.8 -0.17,13.53 11.67,23.32 6.96,47.96 -3.67,19.18 -12.48,25.4 -17.95,39.03 -22.31,12.57 -46.14,32.89 -81.81,16.29 0,-44.53 -7.53,-81.31 -56.43,-94.62 -25.9,-7.04 -22.74,-2.64 -38.71,7.74 0,30.4 7.07,23.31 30.3,30.33 15.65,4.73 24.72,17.53 25.84,37.54 2.55,45.51 -34.55,55.46 -75.72,46.16l0 -295.44zm-36.38 -368.39c-8.31,12.09 -2.8,137.95 -2.8,164.28 0,56.26 0,112.51 0,168.77 0,90.35 0,180.69 0,271.05 0,21.94 -1.08,46.42 -0.16,68.03 1.92,44.69 111.77,46.61 137.27,-0.16 18.06,9.27 47.87,11.58 72.3,4.99 17.99,-4.85 45.11,-18.56 53.62,-32.78 10.18,-5.67 21.65,-27.57 26.28,-41.74 8.02,-24.52 3.74,-36.97 1.7,-60.79 1.35,-5.02 23.91,-19.69 35.14,-52.78 3.04,-8.97 7.04,-26.4 7.03,-36.81 0,-15.31 -5.46,-23.53 -5.79,-38.01 14.34,-3.72 31.88,-23.14 39.17,-34.65 30.43,-26.31 39.81,-98.1 22.49,-139.21 -10.08,-23.95 -19.52,-33.86 -37.12,-50.85 -11.63,-11.24 -40.96,-28.88 -60.92,-30.49 0,-40.03 -9.71,-61.54 -30.01,-82.19 -10.37,-10.55 -20.42,-18.08 -34.66,-23.39 -19.53,-7.28 -27.16,-5.74 -52.85,-5.74 -2.33,-101.22 -143.72,-95 -170.69,-47.53z"/>
    </clipPath>
  <linearGradient id="id1" gradientUnits="userSpaceOnUse" x1="590.75" y1="2422.8" x2="2894.04" y2="2422.8">
   <stop offset="0" style="stop-opacity:1; stop-color:#6003D3"/>
   <stop offset="1" style="stop-opacity:1; stop-color:#0F2097"/>
  </linearGradient>
  <linearGradient id="id2" gradientUnits="userSpaceOnUse" x1="710.36" y1="1469.47" x2="2676.17" y2="1469.47">
   <stop offset="0" style="stop-opacity:1; stop-color:#00208A"/>
   <stop offset="1" style="stop-opacity:1; stop-color:#6A00DB"/>
  </linearGradient>
 </defs>
 <g id="Camada_x0020_1">
  <metadata id="CorelCorpID_0Corel-Layer"/>
  <g id="_2330775617968">
   <path class="fil0" d="M902.61 2574.52c0,9.58 -1.68,18.37 -4.97,26.41 -3.33,8.05 -7.93,14.97 -13.77,20.77 -5.84,5.83 -12.79,10.36 -20.84,13.65 -8.04,3.29 -16.76,4.94 -26.19,4.94l-76.95 0c-2.02,0 -3.93,-0.37 -5.69,-1.08 -1.76,-0.75 -3.25,-1.76 -4.56,-3.04 -1.28,-1.27 -2.29,-2.8 -3,-4.52 -0.74,-1.76 -1.08,-3.67 -1.08,-5.73l0 -128.43c0,-1.98 0.34,-3.85 1.08,-5.61 0.71,-1.76 1.72,-3.29 3,-4.6 1.31,-1.31 2.8,-2.32 4.56,-3.07 1.76,-0.71 3.67,-1.09 5.69,-1.09l76.95 0c9.43,0 18.15,1.65 26.19,4.94 8.05,3.29 15,7.82 20.84,13.62 5.84,5.84 10.44,12.76 13.77,20.84 3.29,8.08 4.97,16.87 4.97,26.37l0 25.63zm-28.5 -25.63c0,-5.57 -0.9,-10.66 -2.7,-15.26 -1.79,-4.6 -4.3,-8.53 -7.59,-11.79 -3.3,-3.21 -7.22,-5.76 -11.79,-7.55 -4.56,-1.8 -9.65,-2.7 -15.19,-2.7l-62.81 0 0 100.19 62.81 0c5.54,0 10.63,-0.9 15.19,-2.65 4.57,-1.8 8.49,-4.34 11.79,-7.6 3.29,-3.25 5.8,-7.14 7.59,-11.71 1.8,-4.56 2.7,-9.65 2.7,-15.3l0 -25.63zm180.73 12.16c0,3.93 -0.71,8.2 -2.09,12.76 -1.38,4.56 -3.63,8.79 -6.73,12.72 -3.11,3.89 -7.19,7.18 -12.16,9.8 -5.02,2.66 -11.11,3.97 -18.26,3.97l-51.4 0 0 -27.09 51.4 0c3.85,0 6.85,-1.2 8.98,-3.55 2.13,-2.4 3.18,-5.32 3.18,-8.83 0,-3.74 -1.2,-6.66 -3.56,-8.76 -2.39,-2.13 -5.23,-3.18 -8.6,-3.18l-51.4 0c-3.89,0 -6.89,1.16 -8.98,3.56 -2.13,2.35 -3.18,5.31 -3.18,8.83l0 39.77c0,3.81 1.16,6.77 3.55,8.86 2.36,2.13 5.31,3.18 8.83,3.18l51.18 0 0 27.2 -51.4 0c-3.97,0 -8.2,-0.71 -12.76,-2.1 -4.6,-1.38 -8.83,-3.62 -12.72,-6.73 -3.93,-3.1 -7.18,-7.14 -9.84,-12.16 -2.62,-5.01 -3.93,-11.07 -3.93,-18.25l0 -40c0,-3.96 0.71,-8.19 2.1,-12.76 1.38,-4.6 3.63,-8.82 6.73,-12.72 3.11,-3.92 7.15,-7.18 12.16,-9.83 5.01,-2.62 11.07,-3.93 18.26,-3.93l51.4 0c3.93,0 8.19,0.71 12.76,2.09 4.56,1.39 8.83,3.63 12.72,6.74 3.89,3.1 7.18,7.14 9.8,12.16 2.62,5.01 3.96,11.07 3.96,18.25zm133.71 39.25c0,4.86 -0.64,9.28 -1.87,13.2 -1.23,3.89 -2.88,7.34 -4.94,10.29 -2.02,2.96 -4.41,5.5 -7.11,7.56 -2.69,2.09 -5.53,3.78 -8.49,5.09 -2.95,1.34 -5.95,2.32 -8.98,2.91 -3.03,0.64 -5.91,0.94 -8.6,0.94l-77.18 0 0 -28.51 76.95 0c3.86,0 6.77,-0.97 8.76,-2.95 1.98,-1.99 2.95,-4.83 2.95,-8.53 -0.33,-7.6 -4.19,-11.41 -11.48,-11.41l-44.19 0c-6.28,0 -11.63,-1.09 -16.01,-3.3 -4.38,-2.17 -7.93,-4.93 -10.66,-8.23 -2.77,-3.29 -4.71,-6.81 -5.95,-10.62 -1.2,-3.78 -1.79,-7.33 -1.79,-10.63 0,-6.36 1.12,-11.71 3.4,-16.05 2.24,-4.34 5.13,-7.89 8.53,-10.58 3.44,-2.7 7.18,-4.64 11.19,-5.88 4.04,-1.19 7.78,-1.79 11.29,-1.79l70.04 0 0 28.5 -69.81 0c-1.46,0 -2.62,0.15 -3.44,0.49 -0.86,0.34 -1.46,0.75 -1.87,1.31 -0.42,0.56 -0.64,1.12 -0.71,1.76 -0.08,0.64 -0.12,1.23 -0.12,1.79 0.08,1.2 0.3,2.1 0.64,2.74 0.37,0.67 0.82,1.16 1.38,1.45 0.56,0.27 1.16,0.45 1.87,0.49 0.68,0.04 1.35,0.04 2.02,0.04l44.19 0c7.29,0 13.5,1.31 18.63,3.96 5.09,2.62 9.24,5.92 12.38,9.92 3.14,3.96 5.43,8.3 6.85,12.98 1.42,4.68 2.13,9.02 2.13,13.06zm147.43 -39.25c0,3.93 -0.71,8.2 -2.09,12.76 -1.38,4.56 -3.63,8.79 -6.73,12.72 -3.11,3.89 -7.19,7.18 -12.16,9.8 -5.02,2.66 -11.11,3.97 -18.26,3.97l-51.4 0 0 -27.09 51.4 0c3.85,0 6.85,-1.2 8.98,-3.55 2.13,-2.4 3.18,-5.32 3.18,-8.83 0,-3.74 -1.2,-6.66 -3.56,-8.76 -2.39,-2.13 -5.23,-3.18 -8.6,-3.18l-51.4 0c-3.89,0 -6.89,1.16 -8.98,3.56 -2.13,2.35 -3.18,5.31 -3.18,8.83l0 39.77c0,3.81 1.16,6.77 3.55,8.86 2.36,2.13 5.31,3.18 8.83,3.18l51.18 0 0 27.2 -51.4 0c-3.97,0 -8.2,-0.71 -12.76,-2.1 -4.6,-1.38 -8.83,-3.62 -12.72,-6.73 -3.93,-3.1 -7.18,-7.14 -9.84,-12.16 -2.62,-5.01 -3.93,-11.07 -3.93,-18.25l0 -40c0,-3.96 0.71,-8.19 2.1,-12.76 1.38,-4.6 3.63,-8.82 6.73,-12.72 3.11,-3.92 7.15,-7.18 12.16,-9.83 5.01,-2.62 11.07,-3.93 18.26,-3.93l51.4 0c3.93,0 8.19,0.71 12.76,2.09 4.56,1.39 8.83,3.63 12.72,6.74 3.89,3.1 7.18,7.14 9.8,12.16 2.62,5.01 3.96,11.07 3.96,18.25zm150.47 79.24l-28.51 0 0 -65.77c0,-3.7 -0.63,-7.07 -1.9,-10.03 -1.28,-2.95 -3,-5.5 -5.2,-7.63 -2.21,-2.09 -4.76,-3.74 -7.75,-4.86 -2.95,-1.12 -6.13,-1.69 -9.58,-1.69l-49.87 0 0 89.98 -28.5 0 0 -104.34c0,-1.98 0.37,-3.82 1.12,-5.54 0.71,-1.72 1.76,-3.22 3.07,-4.49 1.31,-1.27 2.84,-2.28 4.6,-3.03 1.76,-0.71 3.63,-1.08 5.57,-1.08l64.24 0c3.59,0 7.37,0.41 11.33,1.19 4.01,0.83 7.93,2.1 11.86,3.9 3.89,1.79 7.64,4.07 11.15,6.8 3.56,2.74 6.7,6.06 9.43,9.96 2.77,3.92 4.94,8.45 6.55,13.54 1.61,5.12 2.39,10.89 2.39,17.32l0 65.77zm166.41 -118.48c-3.22,10.02 -6.99,19.86 -11.3,29.59 -4.3,9.73 -9.27,18.97 -14.85,27.8 -5.57,8.79 -11.82,16.94 -18.74,24.43 -6.92,7.48 -14.56,13.95 -22.9,19.41 -8.38,5.43 -17.47,9.69 -27.31,12.8 -9.8,3.1 -20.46,4.67 -31.95,4.67 -1.94,0 -3.81,-0.37 -5.57,-1.08 -1.76,-0.75 -3.29,-1.76 -4.6,-3.03 -1.31,-1.27 -2.36,-2.77 -3.07,-4.49 -0.75,-1.72 -1.12,-3.55 -1.12,-5.54l0 -104.56 28.5 0 0 89.11c6.96,0 13.62,-1.49 20.02,-4.49 6.4,-2.99 12.42,-6.96 18.14,-11.89 5.69,-4.94 10.97,-10.55 15.83,-16.84 4.86,-6.28 9.2,-12.72 12.98,-19.34 3.82,-6.62 7.03,-13.1 9.69,-19.46 2.69,-6.36 4.68,-12.04 5.99,-17.09l30.26 0zm139.1 78.49c0,4.86 -0.64,9.28 -1.87,13.2 -1.24,3.89 -2.88,7.34 -4.94,10.29 -2.06,2.96 -4.42,5.5 -7.11,7.56 -2.73,2.09 -5.54,3.78 -8.49,5.09 -2.96,1.34 -5.99,2.32 -9.02,2.91 -3.03,0.64 -5.87,0.94 -8.6,0.94l-51.41 0c-3.93,0 -8.23,-0.71 -12.9,-2.1 -4.68,-1.38 -9.02,-3.66 -12.99,-6.84 -4,-3.18 -7.33,-7.3 -9.99,-12.38 -2.65,-5.09 -4,-11.3 -4,-18.67l0 -38.61c0,-7.3 1.35,-13.47 4,-18.56 2.66,-5.09 5.99,-9.2 9.99,-12.38 3.97,-3.18 8.31,-5.46 12.99,-6.85 4.67,-1.38 8.97,-2.09 12.9,-2.09l51.41 0c7.33,0 13.54,1.31 18.63,3.93 5.12,2.65 9.28,5.94 12.42,9.95 3.14,3.96 5.42,8.3 6.84,12.98 1.43,4.68 2.14,9.02 2.14,13.02l0 38.61zm-28.51 -38.39c0,-3.93 -0.97,-6.84 -2.96,-8.75 -1.98,-1.91 -4.82,-2.85 -8.56,-2.85l-51.18 0c-3.78,0 -6.66,0.98 -8.65,2.89 -1.98,1.94 -2.95,4.78 -2.95,8.49l0 38.61c0,3.7 0.97,6.54 2.95,8.53 1.99,1.98 4.87,2.95 8.65,2.95l51.18 0c3.89,0 6.77,-0.97 8.68,-2.95 1.9,-1.99 2.84,-4.83 2.84,-8.53l0 -38.39zm104.79 78.38l-12.72 0c-4.07,0 -8.45,-0.71 -13.09,-2.1 -4.64,-1.38 -8.98,-3.66 -12.98,-6.84 -4.01,-3.18 -7.34,-7.3 -9.99,-12.38 -2.62,-5.09 -3.93,-11.3 -3.93,-18.67l0 -128.59 28.51 0 0 128.59c0,3.48 1.08,6.28 3.25,8.38 2.21,2.05 4.94,3.1 8.23,3.1l12.72 0 0 28.51zm159.71 -118.48c-3.22,10.02 -6.99,19.86 -11.3,29.59 -4.3,9.73 -9.27,18.97 -14.85,27.8 -5.57,8.79 -11.82,16.94 -18.74,24.43 -6.92,7.48 -14.56,13.95 -22.9,19.41 -8.38,5.43 -17.47,9.69 -27.31,12.8 -9.8,3.1 -20.46,4.67 -31.95,4.67 -1.94,0 -3.81,-0.37 -5.57,-1.08 -1.76,-0.75 -3.29,-1.76 -4.6,-3.03 -1.31,-1.27 -2.36,-2.77 -3.07,-4.49 -0.75,-1.72 -1.12,-3.55 -1.12,-5.54l0 -104.56 28.5 0 0 89.11c6.96,0 13.62,-1.49 20.02,-4.49 6.4,-2.99 12.42,-6.96 18.14,-11.89 5.69,-4.94 10.97,-10.55 15.83,-16.84 4.86,-6.28 9.2,-12.72 12.98,-19.34 3.82,-6.62 7.03,-13.1 9.69,-19.46 2.69,-6.36 4.68,-12.04 5.99,-17.09l30.26 0zm137.67 39.24c0,3.93 -0.71,8.2 -2.09,12.76 -1.38,4.56 -3.63,8.79 -6.73,12.72 -3.11,3.89 -7.19,7.18 -12.16,9.8 -5.02,2.66 -11.11,3.97 -18.26,3.97l-51.4 0 0 -27.09 51.4 0c3.85,0 6.85,-1.2 8.98,-3.55 2.13,-2.4 3.18,-5.32 3.18,-8.83 0,-3.74 -1.2,-6.66 -3.56,-8.76 -2.39,-2.13 -5.23,-3.18 -8.6,-3.18l-51.4 0c-3.89,0 -6.89,1.16 -8.98,3.56 -2.13,2.35 -3.18,5.31 -3.18,8.83l0 39.77c0,3.81 1.16,6.77 3.55,8.86 2.36,2.13 5.31,3.18 8.83,3.18l51.18 0 0 27.2 -51.4 0c-3.97,0 -8.2,-0.71 -12.76,-2.1 -4.6,-1.38 -8.83,-3.62 -12.72,-6.73 -3.93,-3.1 -7.18,-7.14 -9.84,-12.16 -2.62,-5.01 -3.93,-11.07 -3.93,-18.25l0 -40c0,-3.96 0.71,-8.19 2.1,-12.76 1.38,-4.6 3.63,-8.82 6.73,-12.72 3.11,-3.92 7.15,-7.18 12.16,-9.83 5.01,-2.62 11.07,-3.93 18.26,-3.93l51.4 0c3.93,0 8.19,0.71 12.76,2.09 4.56,1.39 8.83,3.63 12.72,6.74 3.89,3.1 7.18,7.14 9.8,12.16 2.62,5.01 3.96,11.07 3.96,18.25zm150.47 79.24l-28.51 0 0 -65.77c0,-3.7 -0.63,-7.07 -1.9,-10.03 -1.28,-2.95 -3,-5.5 -5.2,-7.63 -2.21,-2.09 -4.76,-3.74 -7.75,-4.86 -2.95,-1.12 -6.13,-1.69 -9.58,-1.69l-49.87 0 0 89.98 -28.5 0 0 -104.34c0,-1.98 0.37,-3.82 1.12,-5.54 0.71,-1.72 1.76,-3.22 3.07,-4.49 1.31,-1.27 2.84,-2.28 4.6,-3.03 1.76,-0.71 3.63,-1.08 5.57,-1.08l64.24 0c3.59,0 7.37,0.41 11.33,1.19 4.01,0.83 7.93,2.1 11.86,3.9 3.89,1.79 7.64,4.07 11.15,6.8 3.56,2.74 6.7,6.06 9.43,9.96 2.77,3.92 4.94,8.45 6.55,13.54 1.61,5.12 2.39,10.89 2.39,17.32l0 65.77zm155 -39.99c0,4.86 -0.63,9.28 -1.87,13.2 -1.23,3.89 -2.88,7.34 -4.94,10.29 -2.02,2.96 -4.41,5.5 -7.11,7.56 -2.69,2.09 -5.53,3.78 -8.49,5.09 -2.95,1.34 -5.95,2.32 -8.98,2.91 -3.03,0.64 -5.91,0.94 -8.6,0.94l-51.41 0c-4.9,0 -9.27,-0.64 -13.16,-1.87 -3.86,-1.24 -7.3,-2.88 -10.25,-4.98 -2.96,-2.09 -5.47,-4.49 -7.56,-7.18 -2.1,-2.69 -3.78,-5.54 -5.09,-8.49 -1.31,-2.96 -2.28,-5.95 -2.92,-8.98 -0.6,-3.03 -0.93,-5.87 -0.93,-8.49l0 -38.61c0,-7.3 1.34,-13.47 4,-18.56 2.69,-5.09 5.99,-9.2 9.99,-12.38 3.96,-3.18 8.3,-5.46 12.98,-6.85 4.68,-1.38 8.98,-2.09 12.94,-2.09l51.41 0 0 28.5 -51.18 0c-3.82,0 -6.7,0.98 -8.68,2.89 -1.98,1.94 -2.96,4.78 -2.96,8.49l0 38.38c0,3.86 0.98,6.77 2.92,8.76 1.91,1.98 4.75,2.95 8.49,2.95l51.41 0c3.85,0 6.73,-0.97 8.64,-2.95 1.91,-1.99 2.84,-4.83 2.84,-8.53l0 -128.59 28.51 0 0 128.59zm156.09 0c0,4.86 -0.64,9.28 -1.87,13.2 -1.24,3.89 -2.88,7.34 -4.94,10.29 -2.06,2.96 -4.42,5.5 -7.11,7.56 -2.73,2.09 -5.54,3.78 -8.49,5.09 -2.96,1.34 -5.99,2.32 -9.02,2.91 -3.03,0.64 -5.87,0.94 -8.6,0.94l-51.41 0c-3.93,0 -8.23,-0.71 -12.9,-2.1 -4.68,-1.38 -9.02,-3.66 -12.99,-6.84 -4,-3.18 -7.33,-7.3 -9.99,-12.38 -2.65,-5.09 -4,-11.3 -4,-18.67l0 -38.61c0,-7.3 1.35,-13.47 4,-18.56 2.66,-5.09 5.99,-9.2 9.99,-12.38 3.97,-3.18 8.31,-5.46 12.99,-6.85 4.67,-1.38 8.97,-2.09 12.9,-2.09l51.41 0c7.33,0 13.54,1.31 18.63,3.93 5.12,2.65 9.28,5.94 12.42,9.95 3.14,3.96 5.42,8.3 6.84,12.98 1.43,4.68 2.14,9.02 2.14,13.02l0 38.61zm-28.51 -38.39c0,-3.93 -0.97,-6.84 -2.96,-8.75 -1.98,-1.91 -4.82,-2.85 -8.56,-2.85l-51.18 0c-3.78,0 -6.66,0.98 -8.65,2.89 -1.98,1.94 -2.95,4.78 -2.95,8.49l0 38.61c0,3.7 0.97,6.54 2.95,8.53 1.99,1.98 4.87,2.95 8.65,2.95l51.18 0c3.89,0 6.77,-0.97 8.68,-2.95 1.9,-1.99 2.84,-4.83 2.84,-8.53l0 -38.39zm-1221.02 298.72l-28.51 0 0 -157.17 28.51 0 0 157.17zm159.37 -39.99c0,4.86 -0.63,9.28 -1.87,13.2 -1.23,3.89 -2.88,7.34 -4.94,10.29 -2.02,2.96 -4.41,5.5 -7.11,7.56 -2.69,2.09 -5.53,3.78 -8.49,5.09 -2.95,1.34 -5.95,2.32 -8.98,2.91 -3.03,0.64 -5.91,0.94 -8.6,0.94l-51.41 0c-4.9,0 -9.27,-0.64 -13.16,-1.87 -3.86,-1.24 -7.3,-2.88 -10.25,-4.98 -2.96,-2.09 -5.47,-4.49 -7.56,-7.18 -2.1,-2.69 -3.78,-5.54 -5.09,-8.49 -1.31,-2.96 -2.28,-5.95 -2.92,-8.98 -0.6,-3.03 -0.93,-5.87 -0.93,-8.49l0 -38.61c0,-7.3 1.34,-13.47 4,-18.56 2.69,-5.09 5.99,-9.2 9.99,-12.38 3.96,-3.18 8.3,-5.46 12.98,-6.85 4.68,-1.38 8.98,-2.09 12.94,-2.09l51.41 0 0 28.5 -51.18 0c-3.82,0 -6.7,0.98 -8.68,2.89 -1.98,1.94 -2.96,4.78 -2.96,8.49l0 38.38c0,3.86 0.98,6.77 2.92,8.76 1.91,1.98 4.75,2.95 8.49,2.95l51.41 0c3.85,0 6.73,-0.97 8.64,-2.95 1.91,-1.99 2.84,-4.83 2.84,-8.53l0 -128.59 28.51 0 0 128.59zm154.66 -39.25c0,3.93 -0.71,8.2 -2.09,12.76 -1.38,4.56 -3.63,8.79 -6.73,12.72 -3.11,3.89 -7.19,7.18 -12.16,9.8 -5.02,2.66 -11.11,3.97 -18.26,3.97l-51.4 0 0 -27.09 51.4 0c3.85,0 6.85,-1.2 8.98,-3.55 2.13,-2.4 3.18,-5.32 3.18,-8.83 0,-3.74 -1.2,-6.66 -3.56,-8.76 -2.39,-2.13 -5.23,-3.18 -8.6,-3.18l-51.4 0c-3.89,0 -6.89,1.16 -8.98,3.56 -2.13,2.35 -3.18,5.31 -3.18,8.83l0 39.77c0,3.81 1.16,6.77 3.55,8.86 2.36,2.13 5.31,3.18 8.83,3.18l51.18 0 0 27.2 -51.4 0c-3.97,0 -8.2,-0.71 -12.76,-2.1 -4.6,-1.38 -8.83,-3.62 -12.72,-6.73 -3.93,-3.1 -7.18,-7.14 -9.84,-12.16 -2.62,-5.01 -3.93,-11.07 -3.93,-18.25l0 -40c0,-3.96 0.71,-8.19 2.1,-12.76 1.38,-4.6 3.63,-8.82 6.73,-12.72 3.11,-3.92 7.15,-7.18 12.16,-9.83 5.01,-2.62 11.07,-3.93 18.26,-3.93l51.4 0c3.93,0 8.19,0.71 12.76,2.09 4.56,1.39 8.83,3.63 12.72,6.74 3.89,3.1 7.18,7.14 9.8,12.16 2.62,5.01 3.96,11.07 3.96,18.25zm48.11 -63.56l-28.51 0 0 -25.78 28.51 0 0 25.78zm0 142.8l-28.51 0 0 -118.48 28.51 0 0 118.48zm149.61 -39.24c0,3.96 -0.71,8.19 -2.09,12.75 -1.39,4.6 -3.63,8.83 -6.74,12.72 -3.1,3.93 -7.14,7.19 -12.16,9.84 -5.01,2.62 -11.07,3.93 -18.25,3.93l-51.41 0c-3.92,0 -8.19,-0.71 -12.75,-2.1 -4.57,-1.38 -8.83,-3.62 -12.72,-6.73 -3.93,-3.1 -7.19,-7.14 -9.81,-12.16 -2.65,-5.01 -3.96,-11.07 -3.96,-18.25 0,-3.93 0.71,-8.24 2.09,-12.84 1.39,-4.6 3.63,-8.83 6.74,-12.75 3.1,-3.9 7.18,-7.19 12.16,-9.81 5.01,-2.62 11.11,-3.96 18.25,-3.96l51.41 0 0 27.2 -51.41 0c-3.85,0 -6.84,1.19 -8.98,3.55 -2.13,2.39 -3.18,5.31 -3.18,8.83 0,3.74 1.24,6.62 3.67,8.72 2.47,2.09 5.35,3.1 8.72,3.1l51.18 0c3.89,0 6.88,-1.16 8.98,-3.48 2.13,-2.35 3.18,-5.27 3.18,-8.79l0 -39.77c0,-3.74 -1.13,-6.69 -3.45,-8.9 -2.28,-2.17 -5.2,-3.26 -8.71,-3.26l-62.59 0 0 -27.08 62.59 0c3.96,0 8.19,0.71 12.75,2.09 4.61,1.39 8.83,3.63 12.72,6.74 3.93,3.1 7.19,7.14 9.84,12.16 2.62,5.01 3.93,11.07 3.93,18.25l0 40zm138.87 -0.75c0,4.86 -0.64,9.28 -1.87,13.2 -1.23,3.89 -2.88,7.34 -4.94,10.29 -2.02,2.96 -4.41,5.5 -7.11,7.56 -2.69,2.09 -5.53,3.78 -8.49,5.09 -2.95,1.34 -5.95,2.32 -8.98,2.91 -3.03,0.64 -5.91,0.94 -8.6,0.94l-77.18 0 0 -28.51 76.95 0c3.86,0 6.77,-0.97 8.76,-2.95 1.98,-1.99 2.95,-4.83 2.95,-8.53 -0.33,-7.6 -4.19,-11.41 -11.48,-11.41l-44.19 0c-6.28,0 -11.63,-1.09 -16.01,-3.3 -4.38,-2.17 -7.93,-4.93 -10.66,-8.23 -2.77,-3.29 -4.71,-6.81 -5.95,-10.62 -1.2,-3.78 -1.79,-7.33 -1.79,-10.63 0,-6.36 1.12,-11.71 3.4,-16.05 2.24,-4.34 5.13,-7.89 8.53,-10.58 3.44,-2.7 7.18,-4.64 11.19,-5.88 4.04,-1.19 7.78,-1.79 11.29,-1.79l70.04 0 0 28.5 -69.81 0c-1.46,0 -2.62,0.15 -3.44,0.49 -0.86,0.34 -1.46,0.75 -1.87,1.31 -0.42,0.56 -0.64,1.12 -0.71,1.76 -0.08,0.64 -0.12,1.23 -0.12,1.79 0.08,1.2 0.3,2.1 0.64,2.74 0.37,0.67 0.82,1.16 1.38,1.45 0.56,0.27 1.16,0.45 1.87,0.49 0.68,0.04 1.35,0.04 2.02,0.04l44.19 0c7.29,0 13.5,1.31 18.63,3.96 5.09,2.62 9.24,5.92 12.38,9.92 3.14,3.96 5.43,8.3 6.85,12.98 1.42,4.68 2.13,9.02 2.13,13.06z"/>
   <path class="fil1" d="M1681.34 1122.8l0 218.69c-27.05,0 -54.1,-0.03 -81.15,0.01 -34.85,0.04 -50.62,2.73 -53.14,-29.9 -3.71,-48.24 4.59,-77.73 -29.14,-131.9 -39.69,-63.72 -70.63,-55.44 -122.97,-160.33 -5.58,-11.2 -6.85,-21.75 -13,-27.47l-8.19 -38.85c-7.06,-34.46 -6.97,-53.13 -5.9,-89.48 0.46,-15.48 5.37,-29.12 5.69,-43.58 9.46,-18.19 11.43,-53.86 48.07,-107.82 19.69,-29.02 72.73,-83.6 103.02,-95.56 3.84,-7.03 34.91,-20.34 44.7,-24.52 16.62,-7.1 33.79,-13.41 54.39,-17.81 41.82,-8.92 83.22,-5 92.12,-16.65 6.25,-8.17 5.54,-17.84 -1.43,-24.61 -21.99,-21.32 -136,11.19 -174.85,30.19 -8.96,4.38 -15.5,7.14 -24.23,11.78 -10.05,5.33 -15.7,8.25 -21.47,17.17 -2.09,-0.13 -1.38,-3.05 -12.05,4.41 -15.24,10.66 -70.61,57.85 -75.95,74.33l-20.64 24.91c-3.66,5.42 -4.62,8.01 -8.02,13.94 -11.21,19.53 -33.12,58.17 -34.2,80.62l-14.29 73.24c-0.77,15.41 -4.61,20.42 -1.57,39.63 1.84,11.63 3.64,32.39 4.43,42.5 3.68,38.75 26.7,90.25 41.93,118.87 17.48,32.86 45.12,64.07 72.09,90.23 117.34,113.8 13.54,175.38 104.23,221.94 -6.43,13.02 -2.28,21.94 2.21,33.47 5.9,15.2 -3.66,13.14 -5.12,31.87 -1.93,24.69 17.42,46.93 39.29,48.69 0,23.55 -3.96,50.72 25.63,67.44 22.01,12.44 55.47,8.58 89.1,8.58 44.73,0 89.39,8.25 109.25,-32.46 7.04,-14.45 5.47,-22.95 5.47,-43.56 13.35,-3.01 17.93,-5.83 26.39,-15.11 24.01,-26.35 4.02,-50.28 5.13,-60.24 0.07,-0.64 28.98,-63.75 -40.54,-73.36 -21.33,-2.94 -62.64,-0.61 -86.12,-0.61l0 -183.39 0.12 -134.36c0.11,-19.34 -2.2,-24.16 -11.98,-34.54l-83.89 -97.78c-19.03,-20.86 -26.73,-11.17 -64.94,3.66 -14.45,5.61 -55.99,19.86 -64.08,27.51 -11.99,11.33 -10.59,43.72 34.9,25.64l66.75 -24.84c12.81,8.32 52.3,58.64 66.44,74.01 23.61,25.65 17.56,22.29 17.51,53.59 -0.04,23.94 0,47.87 0,71.81zm-970.95 1275.09l982.4 0.89 0 0 4.75 0 4.75 0 0 0 969.73 -0.85 4.25 -96.17 -195.02 -235.01 -778.96 -1.68 0 -0.02 -4.75 0.01 -4.75 -0.01 0 0.02 -778.96 1.68 -195.02 235.01 -8.42 96.13zm1004.39 -505.94l711.27 -0.1 0.42 -800.03 -253.52 -7.37 -0.86 -67.64 283.71 0.05 46.23 29.3 1.78 877.44c-1.81,9.29 -38.57,49.63 -55.08,52.24l-729.54 0.71 0 0 -4.41 0 -4.42 0 0 0 -729.54 -0.71c-16.5,-2.61 -53.27,-42.95 -55.07,-52.24l1.78 -877.44 46.22 -29.3 310.08 -0.05 5.55 67.64 -286.3 7.37 0.42 800.03 711.28 0.1zm-195.74 -1223.76c0,9.2 10.11,19.01 19.59,19.01 13.05,0 30.62,-15.16 43.14,-20.59 29.6,-12.86 38.01,-9.91 38.01,-33.71 0,-35.37 -75.06,9.2 -86.72,16.32 -5.74,3.5 -14.02,10.14 -14.02,18.97zm-103.53 124.89c0,13.02 24.59,39.33 43.98,-6.2 21.17,-49.72 62.75,-65.76 40.87,-86.98 -31.46,-30.52 -84.85,83.61 -84.85,93.18zm380.56 149.81l0 -338.57 0 -12.15c12.35,-6.34 19.46,-11.52 36.78,-13.38 51.18,-5.47 67.73,46.39 52.46,64.67 -9.5,11.37 -42.4,34.82 -32.26,88.9 2.71,14.47 8.15,23.95 15.11,34.2 9.38,13.77 11.34,18.37 34.24,18.37 5.83,-8.45 15.4,-13.92 8.58,-27.02 -0.05,-0.1 -46.26,-50.92 0.84,-86.01 38.79,-28.89 96.32,1.06 97.05,50.63 0.57,38.06 -17.14,38.96 29.02,47.68 42.96,8.12 77.12,45.53 77.33,93.42 0.15,32.97 -9.17,43.87 -19.75,65.78 -6.53,3.72 -8.19,9.75 -16.3,16.17 -6.84,5.41 -12.45,9.19 -20.07,13.11 -12.68,-6.51 -20.33,-12.01 -36.25,-16.42 -11.5,-3.19 -34.56,-4.05 -48.97,-1.1 -16.92,3.46 -42.41,14.89 -52.85,27.45 -7.1,8.54 -4.64,8.88 -4.64,22.65 15.99,10.39 16.59,18.12 35.74,2.12 9.86,-8.25 24.81,-15.96 42.59,-15.93 16.75,0.03 34.72,6.8 43.7,14.86 10.34,9.27 11.01,28.66 9.45,47.78 -3.29,40.41 -44.05,49.42 -44.28,67.8 -0.17,13.53 11.67,23.32 6.96,47.96 -3.67,19.18 -12.48,25.4 -17.95,39.03 -22.31,12.57 -46.14,32.89 -81.81,16.29 0,-44.53 -7.53,-81.31 -56.43,-94.62 -25.9,-7.04 -22.74,-2.64 -38.71,7.74 0,30.4 7.07,23.31 30.3,30.33 15.65,4.73 24.72,17.53 25.84,37.54 2.55,45.51 -34.55,55.46 -75.72,46.16l0 -295.44zm-36.38 -368.39c-8.31,12.09 -2.8,137.95 -2.8,164.28 0,56.26 0,112.51 0,168.77 0,90.35 0,180.69 0,271.05 0,21.94 -1.08,46.42 -0.16,68.03 1.92,44.69 111.77,46.61 137.27,-0.16 18.06,9.27 47.87,11.58 72.3,4.99 17.99,-4.85 45.11,-18.56 53.62,-32.78 10.18,-5.67 21.65,-27.57 26.28,-41.74 8.02,-24.52 3.74,-36.97 1.7,-60.79 1.35,-5.02 23.91,-19.69 35.14,-52.78 3.04,-8.97 7.04,-26.4 7.03,-36.81 0,-15.31 -5.46,-23.53 -5.79,-38.01 14.34,-3.72 31.88,-23.14 39.17,-34.65 30.43,-26.31 39.81,-98.1 22.49,-139.21 -10.08,-23.95 -19.52,-33.86 -37.12,-50.85 -11.63,-11.24 -40.96,-28.88 -60.92,-30.49 0,-40.03 -9.71,-61.54 -30.01,-82.19 -10.37,-10.55 -20.42,-18.08 -34.66,-23.39 -19.53,-7.28 -27.16,-5.74 -52.85,-5.74 -2.33,-101.22 -143.72,-95 -170.69,-47.53z"/>
   <g>
   </g>
   <g style="clip-path:url(#id0)">
    <g id="_2330775626352">
     <rect class="fil2" x="590.8" y="2299.58" width="2303.27" height="246.68"/>
    </g>
   </g>
   <path class="fil3" d="M1681.34 1122.8l0 218.69c-27.05,0 -54.1,-0.03 -81.15,0.01 -34.85,0.04 -50.62,2.73 -53.14,-29.9 -3.71,-48.24 4.59,-77.73 -29.14,-131.9 -39.69,-63.72 -70.63,-55.44 -122.97,-160.33 -5.58,-11.2 -6.85,-21.75 -13,-27.47l-8.19 -38.85c-7.06,-34.46 -6.97,-53.13 -5.9,-89.48 0.46,-15.48 5.37,-29.12 5.69,-43.58 9.46,-18.19 11.43,-53.86 48.07,-107.82 19.69,-29.02 72.73,-83.6 103.02,-95.56 3.84,-7.03 34.91,-20.34 44.7,-24.52 16.62,-7.1 33.79,-13.41 54.39,-17.81 41.82,-8.92 83.22,-5 92.12,-16.65 6.25,-8.17 5.54,-17.84 -1.43,-24.61 -21.99,-21.32 -136,11.19 -174.85,30.19 -8.96,4.38 -15.5,7.14 -24.23,11.78 -10.05,5.33 -15.7,8.25 -21.47,17.17 -2.09,-0.13 -1.38,-3.05 -12.05,4.41 -15.24,10.66 -70.61,57.85 -75.95,74.33l-20.64 24.91c-3.66,5.42 -4.62,8.01 -8.02,13.94 -11.21,19.53 -33.12,58.17 -34.2,80.62l-14.29 73.24c-0.77,15.41 -4.61,20.42 -1.57,39.63 1.84,11.63 3.64,32.39 4.43,42.5 3.68,38.75 26.7,90.25 41.93,118.87 17.48,32.86 45.12,64.07 72.09,90.23 117.34,113.8 13.54,175.38 104.23,221.94 -6.43,13.02 -2.28,21.94 2.21,33.47 5.9,15.2 -3.66,13.14 -5.12,31.87 -1.93,24.69 17.42,46.93 39.29,48.69 0,23.55 -3.96,50.72 25.63,67.44 22.01,12.44 55.47,8.58 89.1,8.58 44.73,0 89.39,8.25 109.25,-32.46 7.04,-14.45 5.47,-22.95 5.47,-43.56 13.35,-3.01 17.93,-5.83 26.39,-15.11 24.01,-26.35 4.02,-50.28 5.13,-60.24 0.07,-0.64 28.98,-63.75 -40.54,-73.36 -21.33,-2.94 -62.64,-0.61 -86.12,-0.61l0 -183.39 0.12 -134.36c0.11,-19.34 -2.2,-24.16 -11.98,-34.54l-83.89 -97.78c-19.03,-20.86 -26.73,-11.17 -64.94,3.66 -14.45,5.61 -55.99,19.86 -64.08,27.51 -11.99,11.33 -10.59,43.72 34.9,25.64l66.75 -24.84c12.81,8.32 52.3,58.64 66.44,74.01 23.61,25.65 17.56,22.29 17.51,53.59 -0.04,23.94 0,47.87 0,71.81zm-970.95 1275.09l982.4 0.89 0 0 4.75 0 4.75 0 0 0 969.73 -0.85 4.25 -96.17 -195.02 -235.01 -778.96 -1.68 0 -0.02 -4.75 0.01 -4.75 -0.01 0 0.02 -778.96 1.68 -195.02 235.01 -8.42 96.13zm1004.39 -505.94l711.27 -0.1 0.42 -800.03 -253.52 -7.37 -0.86 -67.64 283.71 0.05 46.23 29.3 1.78 877.44c-1.81,9.29 -38.57,49.63 -55.08,52.24l-729.54 0.71 0 0 -4.41 0 -4.42 0 0 0 -729.54 -0.71c-16.5,-2.61 -53.27,-42.95 -55.07,-52.24l1.78 -877.44 46.22 -29.3 310.08 -0.05 5.55 67.64 -286.3 7.37 0.42 800.03 711.28 0.1zm-195.74 -1223.76c0,9.2 10.11,19.01 19.59,19.01 13.05,0 30.62,-15.16 43.14,-20.59 29.6,-12.86 38.01,-9.91 38.01,-33.71 0,-35.37 -75.06,9.2 -86.72,16.32 -5.74,3.5 -14.02,10.14 -14.02,18.97zm-103.53 124.89c0,13.02 24.59,39.33 43.98,-6.2 21.17,-49.72 62.75,-65.76 40.87,-86.98 -31.46,-30.52 -84.85,83.61 -84.85,93.18zm380.56 149.81l0 -338.57 0 -12.15c12.35,-6.34 19.46,-11.52 36.78,-13.38 51.18,-5.47 67.73,46.39 52.46,64.67 -9.5,11.37 -42.4,34.82 -32.26,88.9 2.71,14.47 8.15,23.95 15.11,34.2 9.38,13.77 11.34,18.37 34.24,18.37 5.83,-8.45 15.4,-13.92 8.58,-27.02 -0.05,-0.1 -46.26,-50.92 0.84,-86.01 38.79,-28.89 96.32,1.06 97.05,50.63 0.57,38.06 -17.14,38.96 29.02,47.68 42.96,8.12 77.12,45.53 77.33,93.42 0.15,32.97 -9.17,43.87 -19.75,65.78 -6.53,3.72 -8.19,9.75 -16.3,16.17 -6.84,5.41 -12.45,9.19 -20.07,13.11 -12.68,-6.51 -20.33,-12.01 -36.25,-16.42 -11.5,-3.19 -34.56,-4.05 -48.97,-1.1 -16.92,3.46 -42.41,14.89 -52.85,27.45 -7.1,8.54 -4.64,8.88 -4.64,22.65 15.99,10.39 16.59,18.12 35.74,2.12 9.86,-8.25 24.81,-15.96 42.59,-15.93 16.75,0.03 34.72,6.8 43.7,14.86 10.34,9.27 11.01,28.66 9.45,47.78 -3.29,40.41 -44.05,49.42 -44.28,67.8 -0.17,13.53 11.67,23.32 6.96,47.96 -3.67,19.18 -12.48,25.4 -17.95,39.03 -22.31,12.57 -46.14,32.89 -81.81,16.29 0,-44.53 -7.53,-81.31 -56.43,-94.62 -25.9,-7.04 -22.74,-2.64 -38.71,7.74 0,30.4 7.07,23.31 30.3,30.33 15.65,4.73 24.72,17.53 25.84,37.54 2.55,45.51 -34.55,55.46 -75.72,46.16l0 -295.44zm-36.38 -368.39c-8.31,12.09 -2.8,137.95 -2.8,164.28 0,56.26 0,112.51 0,168.77 0,90.35 0,180.69 0,271.05 0,21.94 -1.08,46.42 -0.16,68.03 1.92,44.69 111.77,46.61 137.27,-0.16 18.06,9.27 47.87,11.58 72.3,4.99 17.99,-4.85 45.11,-18.56 53.62,-32.78 10.18,-5.67 21.65,-27.57 26.28,-41.74 8.02,-24.52 3.74,-36.97 1.7,-60.79 1.35,-5.02 23.91,-19.69 35.14,-52.78 3.04,-8.97 7.04,-26.4 7.03,-36.81 0,-15.31 -5.46,-23.53 -5.79,-38.01 14.34,-3.72 31.88,-23.14 39.17,-34.65 30.43,-26.31 39.81,-98.1 22.49,-139.21 -10.08,-23.95 -19.52,-33.86 -37.12,-50.85 -11.63,-11.24 -40.96,-28.88 -60.92,-30.49 0,-40.03 -9.71,-61.54 -30.01,-82.19 -10.37,-10.55 -20.42,-18.08 -34.66,-23.39 -19.53,-7.28 -27.16,-5.74 -52.85,-5.74 -2.33,-101.22 -143.72,-95 -170.69,-47.53z"/>
   <path class="fil3" d="M1681.34 1122.8l0 218.69c-27.05,0 -54.1,-0.03 -81.15,0.01 -34.85,0.04 -50.62,2.73 -53.14,-29.9 -3.71,-48.24 4.59,-77.73 -29.14,-131.9 -39.69,-63.72 -70.63,-55.44 -122.97,-160.33 -5.58,-11.2 -6.85,-21.75 -13,-27.47l-8.19 -38.85c-7.06,-34.46 -6.97,-53.13 -5.9,-89.48 0.46,-15.48 5.37,-29.12 5.69,-43.58 9.46,-18.19 11.43,-53.86 48.07,-107.82 19.69,-29.02 72.73,-83.6 103.02,-95.56 3.84,-7.03 34.91,-20.34 44.7,-24.52 16.62,-7.1 33.79,-13.41 54.39,-17.81 41.82,-8.92 83.22,-5 92.12,-16.65 6.25,-8.17 5.54,-17.84 -1.43,-24.61 -21.99,-21.32 -136,11.19 -174.85,30.19 -8.96,4.38 -15.5,7.14 -24.23,11.78 -10.05,5.33 -15.7,8.25 -21.47,17.17 -2.09,-0.13 -1.38,-3.05 -12.05,4.41 -15.24,10.66 -70.61,57.85 -75.95,74.33l-20.64 24.91c-3.66,5.42 -4.62,8.01 -8.02,13.94 -11.21,19.53 -33.12,58.17 -34.2,80.62l-14.29 73.24c-0.77,15.41 -4.61,20.42 -1.57,39.63 1.84,11.63 3.64,32.39 4.43,42.5 3.68,38.75 26.7,90.25 41.93,118.87 17.48,32.86 45.12,64.07 72.09,90.23 117.34,113.8 13.54,175.38 104.23,221.94 -6.43,13.02 -2.28,21.94 2.21,33.47 5.9,15.2 -3.66,13.14 -5.12,31.87 -1.93,24.69 17.42,46.93 39.29,48.69 0,23.55 -3.96,50.72 25.63,67.44 22.01,12.44 55.47,8.58 89.1,8.58 44.73,0 89.39,8.25 109.25,-32.46 7.04,-14.45 5.47,-22.95 5.47,-43.56 13.35,-3.01 17.93,-5.83 26.39,-15.11 24.01,-26.35 4.02,-50.28 5.13,-60.24 0.07,-0.64 28.98,-63.75 -40.54,-73.36 -21.33,-2.94 -62.64,-0.61 -86.12,-0.61l0 -183.39 0.12 -134.36c0.11,-19.34 -2.2,-24.16 -11.98,-34.54l-83.89 -97.78c-19.03,-20.86 -26.73,-11.17 -64.94,3.66 -14.45,5.61 -55.99,19.86 -64.08,27.51 -11.99,11.33 -10.59,43.72 34.9,25.64l66.75 -24.84c12.81,8.32 52.3,58.64 66.44,74.01 23.61,25.65 17.56,22.29 17.51,53.59 -0.04,23.94 0,47.87 0,71.81zm-970.95 1275.09l982.4 0.89 0 0 4.75 0 4.75 0 0 0 969.73 -0.85 4.25 -96.17 -195.02 -235.01 -778.96 -1.68 0 -0.02 -4.75 0.01 -4.75 -0.01 0 0.02 -778.96 1.68 -195.02 235.01 -8.42 96.13zm1004.39 -505.94l711.27 -0.1 0.42 -800.03 -253.52 -7.37 -0.86 -67.64 283.71 0.05 46.23 29.3 1.78 877.44c-1.81,9.29 -38.57,49.63 -55.08,52.24l-729.54 0.71 0 0 -4.41 0 -4.42 0 0 0 -729.54 -0.71c-16.5,-2.61 -53.27,-42.95 -55.07,-52.24l1.78 -877.44 46.22 -29.3 310.08 -0.05 5.55 67.64 -286.3 7.37 0.42 800.03 711.28 0.1zm-195.74 -1223.76c0,9.2 10.11,19.01 19.59,19.01 13.05,0 30.62,-15.16 43.14,-20.59 29.6,-12.86 38.01,-9.91 38.01,-33.71 0,-35.37 -75.06,9.2 -86.72,16.32 -5.74,3.5 -14.02,10.14 -14.02,18.97zm-103.53 124.89c0,13.02 24.59,39.33 43.98,-6.2 21.17,-49.72 62.75,-65.76 40.87,-86.98 -31.46,-30.52 -84.85,83.61 -84.85,93.18zm380.56 149.81l0 -338.57 0 -12.15c12.35,-6.34 19.46,-11.52 36.78,-13.38 51.18,-5.47 67.73,46.39 52.46,64.67 -9.5,11.37 -42.4,34.82 -32.26,88.9 2.71,14.47 8.15,23.95 15.11,34.2 9.38,13.77 11.34,18.37 34.24,18.37 5.83,-8.45 15.4,-13.92 8.58,-27.02 -0.05,-0.1 -46.26,-50.92 0.84,-86.01 38.79,-28.89 96.32,1.06 97.05,50.63 0.57,38.06 -17.14,38.96 29.02,47.68 42.96,8.12 77.12,45.53 77.33,93.42 0.15,32.97 -9.17,43.87 -19.75,65.78 -6.53,3.72 -8.19,9.75 -16.3,16.17 -6.84,5.41 -12.45,9.19 -20.07,13.11 -12.68,-6.51 -20.33,-12.01 -36.25,-16.42 -11.5,-3.19 -34.56,-4.05 -48.97,-1.1 -16.92,3.46 -42.41,14.89 -52.85,27.45 -7.1,8.54 -4.64,8.88 -4.64,22.65 15.99,10.39 16.59,18.12 35.74,2.12 9.86,-8.25 24.81,-15.96 42.59,-15.93 16.75,0.03 34.72,6.8 43.7,14.86 10.34,9.27 11.01,28.66 9.45,47.78 -3.29,40.41 -44.05,49.42 -44.28,67.8 -0.17,13.53 11.67,23.32 6.96,47.96 -3.67,19.18 -12.48,25.4 -17.95,39.03 -22.31,12.57 -46.14,32.89 -81.81,16.29 0,-44.53 -7.53,-81.31 -56.43,-94.62 -25.9,-7.04 -22.74,-2.64 -38.71,7.74 0,30.4 7.07,23.31 30.3,30.33 15.65,4.73 24.72,17.53 25.84,37.54 2.55,45.51 -34.55,55.46 -75.72,46.16l0 -295.44zm-36.38 -368.39c-8.31,12.09 -2.8,137.95 -2.8,164.28 0,56.26 0,112.51 0,168.77 0,90.35 0,180.69 0,271.05 0,21.94 -1.08,46.42 -0.16,68.03 1.92,44.69 111.77,46.61 137.27,-0.16 18.06,9.27 47.87,11.58 72.3,4.99 17.99,-4.85 45.11,-18.56 53.62,-32.78 10.18,-5.67 21.65,-27.57 26.28,-41.74 8.02,-24.52 3.74,-36.97 1.7,-60.79 1.35,-5.02 23.91,-19.69 35.14,-52.78 3.04,-8.97 7.04,-26.4 7.03,-36.81 0,-15.31 -5.46,-23.53 -5.79,-38.01 14.34,-3.72 31.88,-23.14 39.17,-34.65 30.43,-26.31 39.81,-98.1 22.49,-139.21 -10.08,-23.95 -19.52,-33.86 -37.12,-50.85 -11.63,-11.24 -40.96,-28.88 -60.92,-30.49 0,-40.03 -9.71,-61.54 -30.01,-82.19 -10.37,-10.55 -20.42,-18.08 -34.66,-23.39 -19.53,-7.28 -27.16,-5.74 -52.85,-5.74 -2.33,-101.22 -143.72,-95 -170.69,-47.53z"/>
   <path class="fil4" d="M1346.81 2276.92c-33.3,0 -66.61,0 -99.73,0 4.78,-15.55 12.14,-31.1 20.24,-46.66 -111.33,0 -222.66,0 -333.99,0 -13.98,15.56 -27.05,31.11 -36.8,46.66 -33.31,0 -66.43,0 -99.55,0 11.59,-15.84 26.39,-31.77 42.32,-47.53 16.09,-15.91 32.6,-31.68 49.13,-47.55 14.39,-13.82 33.6,-26.51 57.41,-38.3 23.3,-11.52 49,-21.61 76.92,-30.08 27.46,-8.32 56.14,-14.89 86.49,-19.66 29.27,-4.6 59.25,-7.02 91.09,-7.02 59.99,0 119.98,0 179.78,0 5.52,0 10.67,0.49 15.46,1.34 5.15,0.91 9.4,2.08 12.7,3.71 3.14,1.54 5.51,3.44 6.99,5.57 1.47,2.11 1.84,4.42 0.92,6.78 -11.22,28.86 -23.84,57.62 -36.43,86.38 -12.62,28.81 -24.66,57.58 -32.95,86.36zm-381.83 -81.13c106.92,0 214.01,0 320.93,0 6.81,-12.41 13.88,-24.82 20.61,-37.26 6.7,-12.39 13.25,-24.86 19.87,-37.29 -48.95,0 -97.53,0 -146.29,0 -2.58,0 -8.1,0.18 -16.75,0.49 -8.46,0.31 -18.58,1.11 -30.18,2.32 -11.77,1.24 -24.66,3.11 -38.82,5.69 -14.17,2.58 -28.34,6.13 -42.51,10.61 -14.35,4.53 -27.78,10.18 -40.67,16.92 -12.87,6.74 -24.23,14.97 -33.12,24.57 -4.35,4.69 -8.83,9.31 -13.07,13.95zm1021.11 1.58c3.3,11.58 0.91,22.33 -7.37,31.94 -8.47,9.84 -21.86,18.18 -39.93,25.12 -18.55,7.13 -41.22,12.54 -68.08,16.52 -26.87,3.99 -56.68,5.97 -89.62,5.97 -89.8,0 -179.6,0 -269.21,0 -6.99,0 -13.8,-0.44 -19.88,-1.31 -6.25,-0.89 -11.62,-2.06 -16.19,-3.65 -4.26,-1.48 -7.48,-3.31 -9.75,-5.47 -2.15,-2.05 -2.88,-4.48 -2.21,-6.95 7.05,-25.89 15.09,-51.79 23.19,-77.67 8.09,-25.87 16.27,-51.74 23.18,-77.69 0.63,-2.37 1.89,-4.63 4.42,-6.78 2.44,-2.09 5.52,-3.99 9.38,-5.57 3.87,-1.59 8.1,-2.84 12.7,-3.71 4.78,-0.9 10.31,-1.34 15.83,-1.34 71.76,0 143.71,0 215.66,0 26.31,0 51.53,2.01 75.26,6 23.74,3.98 44.73,9.42 63.3,16.46 18.6,7.05 34,15.48 46.56,25.21 12.65,9.81 20.73,20.44 23.92,31.91 2.88,10.35 5.89,20.69 8.84,31.01zm-96.98 -31.01c-1.23,-6.74 -5.02,-12.86 -11.41,-18.46 -6.3,-5.54 -14.53,-10.34 -24.84,-14.26 -10.3,-3.92 -22.45,-6.99 -35.88,-9.15 -13.62,-2.19 -28.71,-3.25 -44.72,-3.25 -61.28,0 -122.37,0 -183.46,0 -3.87,20.21 -8.01,40.41 -12.15,60.62 -4.13,20.17 -8.1,40.4 -11.96,60.59 70.66,0 141.51,0 212.17,0 18.77,0 35.89,-1.04 50.97,-3.21 14.91,-2.15 27.83,-5.17 38.46,-9.21 10.16,-3.85 17.66,-8.63 22.64,-14.16 4.96,-5.52 6.76,-11.67 5.52,-18.5 -1.88,-10.32 -3.45,-20.68 -5.34,-31.01zm694.1 54.63c6.62,6.79 9.85,12.91 10.31,18.33 0.46,5.48 -1.42,10.26 -5.34,14.39 -3.99,4.2 -10.47,7.72 -18.58,10.65 -8.08,2.91 -17.49,5.28 -27.6,7.14 -9.94,1.84 -20.43,3.22 -32.02,4.11 -11.41,0.88 -22.45,1.31 -33.12,1.31 -128.27,0 -256.52,0 -384.6,0 -5.7,-11.48 -10.3,-22.96 -14.72,-34.47 123.66,0 247.69,0 371.53,0 18.58,0 31.16,-1.88 38.27,-5.84 6.87,-3.82 7.34,-9.09 1.66,-15.62 -2.78,-3.2 -6.41,-6.16 -11.22,-8.77 -4.93,-2.67 -10.7,-4.89 -17.3,-6.88 -6.29,-1.9 -13.62,-3.46 -21.35,-4.53 -7.72,-1.06 -15.82,-1.59 -24.29,-1.59 -70.48,0 -140.59,0 -210.88,0 -14.72,0 -31.47,-1.01 -49.32,-2.99 -18.02,-2 -35.16,-5.12 -51.71,-9.58 -16.38,-4.42 -30.55,-10.23 -42.69,-17.38 -12.15,-7.16 -20.06,-15.9 -23.92,-26.26 -3.86,-10.36 -2.64,-18.99 3.5,-26.2 6,-7.04 14.05,-12.8 25.21,-17.34 10.74,-4.37 23,-7.68 36.8,-9.68 13.62,-1.97 27.05,-3.01 39.75,-3.01 90.53,0 181.07,0 271.79,0 10.67,11.49 21.16,22.97 31.65,34.46 -94.59,0 -188.98,0 -283.38,0 -15.83,0 -27.03,2.03 -33.86,5.97 -6.97,4.02 -9.01,9.24 -5.89,15.8 3.13,6.59 10.48,11.89 21.53,15.71 11.21,3.86 25.02,5.79 41.77,5.79 67.35,0 134.7,0 202.23,0 0.19,0 0.19,0 0.55,0 9.57,0.08 20.07,0.58 31.29,1.49 11.59,0.93 23.18,2.4 35.33,4.29 12.51,1.96 24.84,4.45 36.98,7.38 12.33,2.98 24.11,6.52 35.52,10.69 11.41,4.16 22.09,8.91 31.65,14.3 9.57,5.39 17.84,11.51 24.47,18.33z"/>
  </g>
 </g>
</svg>
